<svg xmlns="http://www.w3.org/2000/svg">
	<svg id="spinner" viewBox="0 0 50 50">
		<circle cx="25" cy="25" r="20" />
	</svg>
	<svg id="arrow" viewBox="0 0 24 24">
		<path d="M4.3 8.3a1 1 0 011.4 0l6.3 6.29 6.3-6.3a1 1 0 111.4 1.42l-7 7a1 1 0 01-1.4 0l-7-7a1 1 0 010-1.42z" />
	</svg>
	<svg id="arrow-bold" viewBox="0 0 10 6">
		<path d="M5.707 5.707a1 1 0 01-1.414 0l-4-4A1 1 0 011.707.293L5 3.586 8.293.293a1 1 0 011.414 1.414l-4 4z" />
	</svg>
	<svg id="cross" viewBox="0 0 16 16">
		<path d="M14.2929.2929c.3905-.3905 1.0237-.3905 1.4142 0 .3905.3905.3905 1.0237 0 1.4142L9.4142 8l6.2929 6.2929c.3905.3905.3905 1.0237 0 1.4142-.3905.3905-1.0237.3905-1.4142 0L8 9.4142l-6.2929 6.2929c-.3905.3905-1.0237.3905-1.4142 0-.3905-.3905-.3905-1.0237 0-1.4142L6.5858 8 .2928 1.7071C-.0975 1.3166-.0975.6834.2929.293c.3906-.3905 1.0238-.3905 1.4143 0L8 6.5858l6.2929-6.293z" />
	</svg>
	<svg id="cross-separator" viewBox="0 0 24 24">
		<path d="M7.5 16.5a.707.707 0 0 1 0-1L11 12 7.5 8.5a.707.707 0 1 1 1-1L12 11l3.5-3.5a.707.707 0 1 1 1 1L13 12l3.5 3.5a.707.707 0 0 1-1 1L12 13l-3.5 3.5a.707.707 0 0 1-1 0Z" />
	</svg>
	<svg id="trash" viewBox="0 0 16 18">
		<path fill-rule="evenodd" clip-rule="evenodd" d="M5.7 0a2 2 0 00-2 2v1H1a1 1 0 000 2h14a1 1 0 100-2h-2.7V2a2 2 0 00-2-2H5.7zM8 3H5.7V2h4.6v1H8zM1 6a1 1 0 000 2h1l1 8.2A2 2 0 004.8 18h6.2a2 2 0 002-1.8l.8-8.2H15a1 1 0 100-2H1zm3.9 10l-.8-8H7v8H4.9zM9 16V8h3l-.9 8H9z" />
	</svg>
	<svg id="star" viewBox="0 0 12 12">
		<path d="M11.97 4.54c-.05-.17-.22-.45-.78-.46l-2.86-.04c-.3 0-.65-.28-.75-.57L6.66.64C6.48.08 6.16 0 6 0c-.17 0-.48.08-.66.64l-.92 2.83c-.1.29-.46.56-.75.57L.8 4.08c-.56 0-.73.3-.78.46-.06.17-.08.5.37.86L2.7 7.19c.24.19.37.63.29.92l-.85 2.86c-.1.33-.08.6.06.8.2.29.6.32 1.01 0l2.34-1.71a.9.9 0 01.92 0l2.34 1.72c.2.15.38.22.56.22.18 0 .35-.09.45-.23.14-.2.16-.47.06-.8L9.03 8.1a.97.97 0 01.28-.92l2.3-1.8c.44-.35.42-.68.36-.85z" />
	</svg>
	<svg id="star-small" viewBox="0 0 24 24">
		<path d="M12 17L6.5 20L7.5 14L3 9.5L9 9L12 3L15 9L21 9.5L16.5 14L17.5 20L12 17Z" fill="currentColor" />
	</svg>
	<svg id="sharp-star" viewBox="0 0 28 28">
		<path d="M14 19.8333L7.58333 23.3333L8.75 16.3333L3.5 11.0833L10.5 10.5L14 3.5L17.5 10.5L24.5 11.0833L19.25 16.3333L20.4167 23.3333L14 19.8333Z" />
	</svg>
	<svg id="bell" viewBox="0 0 20 24">
		<path d="M18 16H17V11C17 7.48 14.39 4.57 11 4.08V3C11 2.45 10.55 2 10 2C9.45 2 9 2.45 9 3V4.08C5.61 4.57 3 7.48 3 11V16H2C1.45 16 1 16.45 1 17C1 17.55 1.45 18 2 18H6C6 20.21 7.79 22 10 22C12.21 22 14 20.21 14 18H18C18.55 18 19 17.55 19 17C19 16.45 18.55 16 18 16ZM10 20C8.9 20 8 19.1 8 18H12C12 19.1 11.1 20 10 20ZM5 16V11C5 8.24 7.24 6 10 6C12.76 6 15 8.24 15 11V16H5Z" fill="#929CA5" />
	</svg>
	<svg id="ny-bell" viewBox="0 0 20 24">
		<path d="M20 17h-1v-5c0-1.1-.2-2.1-.7-3 .3 0 .5-.1.7-.3.6-.4.9-1 .9-1.7V3c0-.7-.4-1.3-.9-1.7-.6-.4-1.3-.4-1.9 0l-4 2c-.1 0-.2.1-.3.2-.2-.2-.5-.4-.8-.4s-.6.2-.8.4c0 0-.2-.1-.3-.2l-4-2.1C6.3.9 5.5.9 5 1.2c-.6.4-.9 1-.9 1.7v4c0 .7.4 1.3.9 1.7.2.1.5.2.7.3-.4.9-.7 1.9-.7 3v5H4c-.5 0-1 .5-1 1s.5 1 1 1h4c0 2.2 1.8 4 4 4s4-1.8 4-4h4c.5 0 1-.5 1-1s-.5-1-1-1ZM6 3l4 2-4 2V3Zm6 18c-1.1 0-2-.9-2-2h4c0 1.1-.9 2-2 2Zm5-4H7v-5c0-2.8 2.2-5 5-5s5 2.2 5 5v5Zm1-10-4-2 4-2v4Z" />
	</svg>
	<svg id="person" viewBox="0 0 24 24">
		<path fill-rule="evenodd" clip-rule="evenodd" d="M14.5 7.5a2.5 2.5 0 1 1-5 0 2.5 2.5 0 0 1 5 0Zm2 0a4.5 4.5 0 1 1-9 0 4.5 4.5 0 0 1 9 0ZM12 15c3.548 0 6.483 2.608 6.972 6H21c-.5-4.5-4.339-8-9-8s-8.5 3.5-9 8h2.028c.489-3.392 3.424-6 6.972-6Z" />
	</svg>
	<svg id="user" viewBox="0 0 24 24">
		<path fill-rule="evenodd" clip-rule="evenodd" d="M15 8C15 6.35 13.65 5 12 5C10.35 5 9 6.35 9 8C9 9.65 10.35 11 12 11C13.65 11 15 9.65 15 8ZM7 8C7 5.24 9.24 3 12 3C14.76 3 17 5.24 17 8C17 9.80435 16.0426 11.3865 14.6085 12.2657C18.8695 13.1593 21 16 21 16V19C21 20.1 20.1 21 19 21H5C3.9 21 3 20.1 3 19V16C3 16 5.13049 13.1593 9.39147 12.2657C7.95735 11.3865 7 9.80435 7 8ZM19 16.76C18.12 15.88 15.8 14 12 14C8.21 14 5.89 15.87 5 16.76V19H19V16.76Z" />
	</svg>
	<svg id="trash" viewBox="0 0 16 18">
		<path d="M5.7 0a2 2 0 00-2 2v1H1a1 1 0 000 2h14a1 1 0 100-2h-2.7V2a2 2 0 00-2-2H5.7zM8 3H5.7V2h4.6v1H8zM1 6a1 1 0 000 2h1l1 8.2A2 2 0 004.8 18h6.2a2 2 0 002-1.8l.8-8.2H15a1 1 0 100-2H1zm3.9 10l-.8-8H7v8H4.9zM9 16V8h3l-.9 8H9z" />
	</svg>
	<svg xmlns="http://www.w3.org/2000/svg" id="mail" viewBox="0 0 20 16">
		<path d="M16 0H4C1.79 0 0 1.79 0 4V12C0 14.21 1.79 16 4 16H16C18.21 16 20 14.21 20 12V4C20 1.79 18.21 0 16 0ZM16 2C16.43 2 16.83 2.14 17.16 2.38L10 7.75L2.84 2.38C3.17 2.14 3.57 2 4 2H16ZM16 14H4C2.9 14 2 13.1 2 12V4.25L9.4 9.8C9.58 9.93 9.79 10 10 10C10.21 10 10.42 9.93 10.6 9.8L18 4.25V12C18 13.1 17.1 14 16 14Z" />
	</svg>
	<svg id="bookmark" viewBox="0 0 14 18">
		<path d="M0 1a1 1 0 011-1h12a1 1 0 011 1v16a1 1 0 01-1.47.88L7 14.95l-5.53 2.93A1 1 0 010 17V1zm2 1v13.34l4.53-2.4a1 1 0 01.94 0l4.53 2.4V2H2z" />
	</svg>
	<svg id="location" viewBox="0 0 13 13">
		<path d="M6.29 11.25l4.96-9.5-9.5 5.02h4.54v4.48z" />
	</svg>
	<svg id="gear" viewBox="0 0 16 16">
		<path d="M16 5.67359C15.8335 5.11682 15.6128 4.58348 15.3411 4.08119C14.3042 4.35262 13.4648 3.94633 12.7592 3.2408C12.0537 2.53527 11.8377 1.69564 12.1091 0.658865C11.607 0.387243 11.0737 0.166478 10.5168 0C9.97543 0.924963 8.99771 1.53888 8 1.53888C7.00248 1.53888 6.02476 0.924963 5.48324 0C4.92648 0.166288 4.39314 0.387243 3.89105 0.658674C4.16229 1.69564 3.94648 2.53527 3.24095 3.24099C2.53543 3.94652 1.69581 4.35281 0.658857 4.08176C0.387238 4.58367 0.166476 5.11701 0 5.67378C0.924762 6.21512 1.53886 7.00256 1.53886 8.0001C1.53886 8.99763 0.924952 9.97555 0 10.5167C0.166476 11.0737 0.387238 11.607 0.658857 12.1093C1.69581 11.8379 2.53543 12.0539 3.24095 12.7594C3.94629 13.4651 4.16229 14.3044 3.89105 15.3413C4.39314 15.6128 4.92648 15.8339 5.48343 16C6.02495 15.0752 7.00248 14.4609 8 14.4609C8.99771 14.4609 9.97543 15.0752 10.5168 16C11.0739 15.8335 11.6072 15.6128 12.1093 15.3409C11.8381 14.3044 12.0537 13.4649 12.7592 12.7592C13.4648 12.0537 14.3042 11.6472 15.3411 11.9186C15.6128 11.4163 15.8335 10.883 16 10.326C15.075 9.78488 14.4611 8.99744 14.4611 7.9999C14.4611 7.00237 15.0752 6.21474 16 5.67359ZM8 11.479C6.07867 11.479 4.52095 9.92126 4.52095 7.99971C4.52095 6.07817 6.07848 4.52043 8 4.52043C9.92152 4.52043 11.479 6.07817 11.479 7.99971C11.479 9.92126 9.92152 11.479 8 11.479Z" />
	</svg>
	<svg id="plus" viewBox="0 0 24 24">
		<path fill-rule="evenodd" clip-rule="evenodd" d="M12 3a1 1 0 0 0-1 1v7H4a1 1 0 1 0 0 2h7v7a1 1 0 1 0 2 0v-7h7a1 1 0 1 0 0-2h-7V4a1 1 0 0 0-1-1Z" />
	</svg>
	<svg id="minus" viewBox="0 0 24 24">
		<path d="M4 11H20V13H4V11Z" />
	</svg>
	<svg id="pen" viewBox="0 0 25 25">
		<path d="M15.92 2.47a1 1 0 010 1.41l-6.37 6.37c-.2.2-.24.4-.21.63.04.27.2.59.48.87.28.28.6.44.87.48a.7.7 0 00.63-.22l4.6-4.6a1 1 0 011.41 0 1 1 0 010 1.42l-4.6 4.6a.7.7 0 00-.2.63c.03.27.2.6.47.87.28.28.6.44.87.48.23.03.43-.01.63-.2l6.37-6.38a1 1 0 111.41 1.41l-6.35 6.36h-.01l-.02.02-1.4 1.4a1 1 0 01-.4.25L4.9 21.1a1 1 0 01-1.25-1.25l2.83-9.2a1 1 0 01.25-.4l1.4-1.4a5.28 5.28 0 01.02-.03l6.36-6.35a1 1 0 011.4 0zM7.96 12.63l-1.84 6 6-1.84a3.62 3.62 0 01-1.59-2.56l-.14-.02a3.62 3.62 0 01-2.43-1.58z" />
	</svg>
	<svg id="template" viewBox="0 0 19 12">
		<path stroke-width="2" stroke-linecap="round" stroke-linejoin="round" d="M1 1h17M13 6H1M1 11h17" />
	</svg>
	<svg id="info" viewBox="0 0 24 24">
		<path fill-rule="evenodd" clip-rule="evenodd" d="M12 22C17.5228 22 22 17.5228 22 12C22 6.47715 17.5228 2 12 2C6.47715 2 2 6.47715 2 12C2 17.5228 6.47715 22 12 22ZM13 7C13 7.55228 12.5523 8 12 8C11.4477 8 11 7.55228 11 7C11 6.44772 11.4477 6 12 6C12.5523 6 13 6.44772 13 7ZM13 10V17H11V10H13ZM20 12C20 16.4183 16.4183 20 12 20C7.58172 20 4 16.4183 4 12C4 7.58172 7.58172 4 12 4C16.4183 4 20 7.58172 20 12Z" />
	</svg>
	<svg id="emoji-add" viewBox="0 0 20 20">
		<path d="M10 2H9a9 9 0 109 8h-2v1a7 7 0 11-6-7V2z" />
		<path d="M15 0h2v8h-2z" />
		<path d="M20 3v2h-8V3z" />
		<circle cx="6.5" cy="8.5" r="1.5" />
		<circle cx="11.5" cy="8.5" r="1.5" />
		<path d="M4.4 13a5 5 0 009.2 0H4.4z" />
	</svg>
	<!-- TODO: refactor -->
	<svg id="dots" width="18" height="4" fill="none">
		<path fill-rule="evenodd" clip-rule="evenodd" d="M4 2a2 2 0 11-4 0 2 2 0 014 0zm7 0a2 2 0 11-4 0 2 2 0 014 0zm5 2a2 2 0 100-4 2 2 0 000 4z" fill="#929CA5" />
	</svg>
	<svg id="down" width="14" height="14" fill="none">
		<path fill-rule="evenodd" clip-rule="evenodd" d="M7.04367 0c.55228 0 1 .447716 1 1v9.9696c.69275-1.10741 1.52743-2.1194 2.48283-3.01021l1.3156-1.22668c.3841-.35815.9843-.35398 1.3684.00416.424.3954.4292 1.07218.0051 1.46758L7.68196 13.3641c-.38411.3582-.97982.3582-1.36392 0L.784397 8.20444C.360346 7.80905.365488 7.13227.789539 6.73687c.384111-.35814.984281-.36231 1.368391-.00416l1.3156 1.22668c.95536.89081 1.79005 1.9028 2.4828 3.01021V1c0-.552285.44772-1 1-1h.08734z" fill="#5677FC" />
	</svg>
	<svg id="readBy" width="19" height="11" fill="none">
		<path fill-rule="evenodd" clip-rule="evenodd" d="M14.6953 1.71877c.3969-.38398.4074-1.01706.0235-1.414023-.384-.3969624-1.0171-.407489-1.4141-.023511L8.65257 4.78124c-.39696.38397-.40749 1.01705-.02351 1.41401.38398.39697 1.01706.40749 1.41404.02352l4.6522-4.5zM1.69191 5.77801C1.29316 5.39588.660142 5.40935.278013 5.8081c-.382129.39874-.36866 1.03176.030083 1.41389L3.96027 10.722c.39874.3821 1.03176.3686 1.41389-.0301.38213-.3987.36866-1.03176-.03008-1.41389l-3.65217-3.5zM18.6919 2.72199c.3988-.38213.4122-1.01515.0301-1.41389-.3821-.398748-1.0152-.412216-1.4139-.03009l-7.2408 6.93908c-.20617.1976-.31876.30446-.40554.37522l-.00959.00774-.00958-.00774c-.08678-.07076-.19937-.17762-.40556-.37522L6.69191 5.77801c-.39875-.38213-1.03177-.36866-1.4139.03009-.38213.39874-.36866 1.03176.03009 1.41389l2.54512 2.43908.0224.02147c.17511.16785.34638.33206.50309.45976.17273.1409.39025.2911.67164.3799.3917.1236.81195.1236 1.20365 0 .2814-.0888.4989-.239.6716-.3799.1568-.1277.328-.29192.5031-.45978l.0224-.02145 7.2408-6.93908z" fill="#838A92" />
	</svg>
	<svg id="arrow-back" width="10" height="18">
		<path fill-rule="evenodd" clip-rule="evenodd" d="M9.67456.329505c.43394.43934.43394 1.151655 0 1.590995L2.68246 9l6.9921 7.0795c.43394.4393.43394 1.1517 0 1.591-.43391.4393-1.13743.4393-1.57135 0L.325437 9.7955c-.433916-.43934-.433916-1.15166 0-1.591L8.10321.329505c.43392-.43934 1.13744-.43934 1.57135 0z" />
	</svg>
	<svg xmlns="http://www.w3.org/2000/svg" id="check" width="24" height="24" viewBox="0 0 24 24" fill="none">
		<path d="M5 11L10 17L20 6" stroke="#64C178" stroke-width="2" stroke-linecap="round" stroke-linejoin="round" />
	</svg>
	<svg xmlns="http://www.w3.org/2000/svg" id="arrow-forward" width="24" height="24" viewBox="0 0 24 24" fill="none">
		<path fill-rule="evenodd" clip-rule="evenodd" d="M8.29289 19.7071C7.90237 19.3166 7.90237 18.6834 8.29289 18.2929L14.5858 12L8.29289 5.70711C7.90237 5.31658 7.90237 4.68342 8.29289 4.29289C8.68342 3.90237 9.31658 3.90237 9.70711 4.29289L16.7071 11.2929C17.0976 11.6834 17.0976 12.3166 16.7071 12.7071L9.70711 19.7071C9.31658 20.0976 8.68342 20.0976 8.29289 19.7071Z" fill="#929CA5" />
	</svg>
	<svg xmlns="http://www.w3.org/2000/svg" id="arrow-big" width="48" height="49" viewBox="0 0 48 49" fill="none">
		<path fill-rule="evenodd" clip-rule="evenodd" d="M14.9998 25.5C14.4476 24.9477 14.4476 24.0523 14.9998 23.5L28.9998 9.50003C29.5521 8.94774 30.4476 8.94774 30.9998 9.50003C31.5521 10.0523 31.5521 10.9477 30.9998 11.5L17.9998 24.5L30.9998 37.5C31.5521 38.0523 31.5521 38.9477 30.9998 39.5C30.4476 40.0523 29.5521 40.0523 28.9998 39.5L14.9998 25.5Z" fill="white" />
	</svg>
	<svg xmlns="http://www.w3.org/2000/svg" id="favorite" width="24" height="24" viewBox="0 0 24 24" fill="currentColor">
		<path d="M12.6402 16.2318L12 15.6983L11.3598 16.2318L5.76822 20.8914C5.68405 20.9616 5.57795 21 5.46837 21C5.2097 21 5 20.7903 5 20.5316V6C5 4.34315 6.34315 3 8 3H16C17.6569 3 19 4.34315 19 6V20.5316C19 20.7903 18.7903 21 18.5316 21C18.4221 21 18.316 20.9616 18.2318 20.8914L12.6402 16.2318Z" stroke="#929CA5" stroke-width="2" />
	</svg>
	<svg xmlns="http://www.w3.org/2000/svg" id="edit_new" width="24" height="24" viewBox="0 0 24 24" fill="none">
		<path fill-rule="evenodd" clip-rule="evenodd" d="M19.818 6.64607L17.3536 4.1816C17.1583 3.98634 16.8417 3.98634 16.6464 4.1816L14.9142 5.91384L18.0858 9.08541L19.818 7.35318C20.0133 7.15791 20.0133 6.84133 19.818 6.64607ZM17.0858 10.0854L13.9142 6.91384L5.88562 14.9424L5.76777 15.7674L8.23223 18.2319L9.05719 18.114L17.0858 10.0854ZM10 19.9996L21.2322 8.76739C22.2085 7.79108 22.2085 6.20816 21.2322 5.23185L18.7678 2.76739C17.7915 1.79108 16.2085 1.79108 15.2322 2.76739L4 13.9996L3.29463 18.9372L3 20.9996L5.06239 20.705L10 19.9996Z" fill="#929CA5" stroke="none" />
	</svg>
	<svg id="message" viewBox="0 0 20 24">
		<path d="M16 4H4C1.79 4 0 5.79 0 8V16C0 18.21 1.79 20 4 20H16C18.21 20 20 18.21 20 16V8C20 5.79 18.21 4 16 4ZM16 6C16.43 6 16.83 6.14 17.16 6.38L10 11.75L2.84 6.38C3.17 6.14 3.57 6 4 6H16ZM16 18H4C2.9 18 2 17.1 2 16V8.25L9.4 13.8C9.58 13.93 9.79 14 10 14C10.21 14 10.42 13.93 10.6 13.8L18 8.25V16C18 17.1 17.1 18 16 18Z" />
	</svg>
	<svg id="home" viewBox="0 0 20 24">
		<path d="M19.405 10.59L11.405 2.59C11.015 2.2 10.505 2 9.995 2C9.485 2 8.975 2.2 8.585 2.59L0.585 10.59C-0.195 11.37 -0.195 12.64 0.585 13.42L1.995 14.83V19C1.995 20.1 2.895 21 3.995 21H15.995C17.095 21 17.995 20.1 17.995 19V14.83L19.405 13.42C20.195 12.63 20.195 11.37 19.405 10.59ZM8.995 19V15C8.995 14.45 9.445 14 9.995 14C10.545 14 10.995 14.45 10.995 15V19H8.995ZM15.995 14V19H12.995V15C12.995 13.35 11.645 12 9.995 12C8.345 12 6.995 13.35 6.995 15V19H3.995V14L1.995 12L9.995 4L17.995 12L15.995 14Z" />
	</svg>
	<svg id="blue-loader" viewBox="0 0 24 24">
		<path d="M10.524 3.62913C12.1796 3.33721 13.8846 3.54278 15.4233 4.21985C16.9621 4.89693 18.2656 6.01509 19.1688 7.43295C20.0721 8.85081 20.5347 10.5047 20.498 12.1854C20.4613 13.8662 19.9271 15.4983 18.9628 16.8754C17.9985 18.2525 16.6476 19.3128 15.0807 19.9221C13.5139 20.5314 11.8016 20.6624 10.1603 20.2985C8.51897 19.9347 7.02244 19.0923 5.85991 17.8779C4.69737 16.6635 3.92106 15.1316 3.62913 13.476" stroke="#5677FC" stroke-width="3" stroke-linecap="round" fill="none" />
	</svg>
	<svg id="search" width="24" height="24" viewBox="0 0 24 24">
		<path fill-rule="evenodd" clip-rule="evenodd" d="M17 11C17 14.3137 14.3137 17 11 17C7.68629 17 5 14.3137 5 11C5 7.68629 7.68629 5 11 5C14.3137 5 17 7.68629 17 11ZM15.5838 17.5574C14.2857 18.4665 12.7051 19 11 19C6.58172 19 3 15.4183 3 11C3 6.58172 6.58172 3 11 3C15.4183 3 19 6.58172 19 11C19 12.9998 18.2662 14.8282 17.0533 16.2307C17.0767 16.2502 17.0994 16.2709 17.1214 16.2929L20.4143 19.5858C20.8048 19.9763 20.8048 20.6095 20.4143 21C20.0238 21.3905 19.3906 21.3905 19.0001 21L15.7072 17.7071C15.6605 17.6604 15.6194 17.6102 15.5838 17.5574Z" />
	</svg>
	<svg id="filter" viewBox="0 0 24 24">
		<path d="M3 17v2h6v-2ZM3 5v2h10V5Zm10 16v-2h8v-2h-8v-2h-2v6zM7 9v2H3v2h4v2h2V9Zm14 4v-2H11v2zm-6-4h2V7h4V5h-4V3h-2z" />
	</svg>
	<svg id="direction" viewBox="0 0 24 24">
		<path fill-rule="evenodd" clip-rule="evenodd" d="M15.5 12L12.25 8.75L13 8L17.5 12.5L13 17L12.2354 16.2354L15.5 13H6V12H15.5Z" />
	</svg>
	<svg id="eye" viewBox="0 0 24 24">
		<path fill-rule="evenodd" clip-rule="evenodd" d="M11.9998 17C8.09839 17 4.71479 14.7653 3.06654 11.5C4.71479 8.23471 8.09839 6 11.9998 6C15.9012 6 19.2848 8.23472 20.933 11.5C19.2848 14.7653 15.9012 17 11.9998 17ZM11.9998 4C17.0359 4 21.3474 7.10226 23.1275 11.5C21.3474 15.8977 17.0359 19 11.9998 19C6.96373 19 2.65223 15.8977 0.87207 11.5C2.65223 7.10225 6.96373 4 11.9998 4ZM14.5 11.5C14.5 12.8807 13.3807 14 12 14C10.6193 14 9.5 12.8807 9.5 11.5C9.5 10.1193 10.6193 9 12 9C13.3807 9 14.5 10.1193 14.5 11.5ZM16.5 11.5C16.5 13.9853 14.4853 16 12 16C9.51472 16 7.5 13.9853 7.5 11.5C7.5 9.01472 9.51472 7 12 7C14.4853 7 16.5 9.01472 16.5 11.5Z" />
	</svg>
	<svg id="cert" viewBox="0 0 24 24">
		<path fill-rule="evenodd" clip-rule="evenodd" d="M6 2H14L20 8V20C20 21.1 19.1 22 18 22H5.99C4.89 22 4 21.1 4 20V4C4 2.9 4.9 2 6 2ZM6 20H18V9H13V4H6V20ZM11 18L8 15L9 14L11 16L15.5 11.5L16.5 12.5L11 18Z" />
	</svg>
	<svg id="assist" viewBox="0 0 24 24">
		<path d="M8 16H16V18H8V16ZM8 12H16V14H8V12ZM14 2H6C4.9 2 4 2.9 4 4V20C4 21.1 4.89 22 5.99 22H18C19.1 22 20 21.1 20 20V8L14 2ZM18 20H6V4H13V9H18V20Z" />
	</svg>
	<svg id="clock" viewBox="0 0 24 24">
		<path d="m 11.989995,2 c -5.51999,0 -9.98999,4.48 -9.98999,10 0,5.52 4.47,10 9.98999,10 5.53,0 10.01,-4.48 10.01,-10 0,-5.52 -4.48,-10 -10.01,-10 z m 0.01,18 c -4.41999,0 -7.99999,-3.58 -7.99999,-8 0,-4.42 3.58,-8 7.99999,-8 4.42,0 8,3.58 8,8 0,4.42 -3.58,8 -8,8 z" />
		<path d="m 10.999995,12.41 4.29,4.3 1.42,-1.41 -3.71,-3.71 V 7 h -2 z" />
	</svg>
	<svg id="copy" viewBox="0 0 24 24">
		<path d="M15 2H5C3.9 2 3 2.9 3 4V17H5V4H15V2ZM18 6H9C7.9 6 7 6.9 7 8V20C7 21.1 7.9 22 9 22H18C19.1 22 20 21.1 20 20V8C20 6.9 19.1 6 18 6ZM18 20H9V8H18V20Z" />
	</svg>
	<svg id="arrow-right" viewBox="0 0 24 24">
		<path fill-rule="evenodd" clip-rule="evenodd" d="M15.501 12L12.251 8.75L13.001 8L17.501 12.5L13.001 17L12.2364 16.2354L15.501 13H6.00098V12H15.501Z" />
	</svg>
	<svg id="place-mark" viewBox="0 0 24 24">
		<path d="M12 12C10.9 12 10 11.1 10 10C10 8.9 10.9 8 12 8C13.1 8 14 8.9 14 10C14 11.1 13.1 12 12 12ZM18 10.2C18 6.57 15.35 4 12 4C8.65 4 6 6.57 6 10.2C6 12.54 7.95 15.64 12 19.34C16.05 15.64 18 12.54 18 10.2ZM12 2C16.2 2 20 5.22 20 10.2C20 13.52 17.33 17.45 12 22C6.67 17.45 4 13.52 4 10.2C4 5.22 7.8 2 12 2Z" />
	</svg>
	<svg id="more" viewBox="0 0 24 24">
		<path fill-rule="evenodd" clip-rule="evenodd" d="M7 12C7 13.1046 6.10457 14 5 14C3.89543 14 3 13.1046 3 12C3 10.8954 3.89543 10 5 10C6.10457 10 7 10.8954 7 12ZM14 12C14 13.1046 13.1046 14 12 14C10.8954 14 10 13.1046 10 12C10 10.8954 10.8954 10 12 10C13.1046 10 14 10.8954 14 12ZM19 14C20.1046 14 21 13.1046 21 12C21 10.8954 20.1046 10 19 10C17.8954 10 17 10.8954 17 12C17 13.1046 17.8954 14 19 14Z" />
	</svg>
	<svg id="bar-arrow" viewBox="0 0 12 6">
		<path d="M5.34535 5.43305C5.72112 5.75848 6.27888 5.75848 6.65465 5.43305L10.9006 1.75593C11.6005 1.14979 11.1719 0 10.246 0H1.75402C0.828135 0 0.399465 1.14979 1.09937 1.75593L5.34535 5.43305Z" />
	</svg>
	<svg id="accreditation" viewBox="0 0 17 16">
		<path fill-rule="evenodd" clip-rule="evenodd" d="M14.8012 10.1014L16.334 8.00005L14.8012 5.89874L14.8061 3.29777L12.3309 2.49874L10.8061 0.391602L8.33398 1.20005L5.86185 0.391602L4.33705 2.49874L1.86185 3.29777L1.8668 5.89874L0.333984 8.00005L1.8668 10.1014L1.86185 12.7023L4.33704 13.5014L5.86185 15.6085L8.33398 14.8001L10.8061 15.6085L12.3309 13.5014L14.8061 12.7023L14.8012 10.1014ZM7.33398 11.5001L4.33398 8.50005L5.33398 7.50005L7.33398 9.50005L11.834 5.00005L12.834 6.00005L7.33398 11.5001Z" fill="#5677FC" />
	</svg>
	<svg xmlns="http://www.w3.org/2000/svg" id="share" viewBox="0 0 24 24" fill="none">
		<path d="M8.68387 13.3419C8.88616 12.9381 9 12.4824 9 12C9 11.5176 8.88616 11.0619 8.68387 10.6581M8.68387 13.3419C8.19134 14.3251 7.17449 15 6 15C4.34315 15 3 13.6569 3 12C3 10.3431 4.34315 9 6 9C7.17449 9 8.19134 9.67492 8.68387 10.6581M8.68387 13.3419L15.3161 16.6581M8.68387 10.6581L15.3161 7.34193M15.3161 7.34193C15.8087 8.32508 16.8255 9 18 9C19.6569 9 21 7.65685 21 6C21 4.34315 19.6569 3 18 3C16.3431 3 15 4.34315 15 6C15 6.48237 15.1138 6.93815 15.3161 7.34193ZM15.3161 16.6581C15.1138 17.0619 15 17.5176 15 18C15 19.6569 16.3431 21 18 21C19.6569 21 21 19.6569 21 18C21 16.3431 19.6569 15 18 15C16.8255 15 15.8087 15.6749 15.3161 16.6581Z" stroke="#929CA5" stroke-width="2" stroke-linecap="round" stroke-linejoin="round" />
	</svg>
</svg>
